<?xml version="1.0" standalone="no"?>
<!DOCTYPE svg PUBLIC "-//W3C//DTD SVG 20010904//EN"
 "http://www.w3.org/TR/2001/REC-SVG-20010904/DTD/svg10.dtd">
<svg version="1.0" xmlns="http://www.w3.org/2000/svg"
 width="1108.000000pt" height="1108.000000pt" viewBox="0 0 1108.000000 1108.000000"
 preserveAspectRatio="xMidYMid meet">
<metadata>
Created by potrace 1.16, written by Peter Selinger 2001-2019
</metadata>
<g transform="translate(0.000000,1108.000000) scale(0.100000,-0.100000)"
fill="#000000" stroke="none">
<path d="M4420 9922 c-11 -13 -20 -29 -20 -35 0 -6 -6 -18 -14 -26 -23 -26
-150 -279 -186 -373 -19 -49 -39 -88 -45 -88 -5 0 -24 8 -41 19 -17 10 -41 22
-55 26 -13 4 -36 16 -50 26 -14 10 -50 28 -80 39 -29 12 -56 25 -59 28 -6 8
-188 97 -198 97 -4 0 -23 10 -43 23 -20 12 -39 22 -41 22 -3 0 -23 8 -44 17
-22 9 -41 17 -44 18 -3 1 -18 7 -33 13 -16 7 -34 12 -41 12 -6 0 -16 4 -21 9
-6 5 -52 27 -103 50 -74 32 -98 39 -113 30 -20 -10 -72 -111 -85 -164 -4 -16
-14 -46 -22 -65 -23 -53 -62 -159 -77 -211 -7 -25 -22 -68 -33 -95 -11 -27
-26 -71 -33 -99 -6 -27 -15 -54 -19 -60 -4 -5 -26 -68 -50 -140 -23 -71 -46
-138 -51 -147 -5 -10 -9 -27 -9 -37 0 -11 -4 -23 -10 -26 -9 -6 -121 29 -145
45 -5 4 -41 17 -80 29 -38 12 -93 33 -121 47 -61 29 -119 32 -132 7 -8 -17 10
-194 37 -354 28 -173 61 -355 66 -367 2 -7 18 -80 35 -162 l31 -150 -35 -44
c-20 -23 -36 -46 -36 -50 0 -4 -11 -19 -26 -34 -23 -25 -50 -64 -148 -215 -41
-63 -146 -280 -176 -362 -24 -66 -54 -180 -76 -285 -18 -89 -33 -123 -90 -205
-19 -27 -40 -58 -47 -68 -6 -11 -20 -29 -31 -40 -41 -48 -159 -304 -208 -450
-53 -160 -139 -536 -130 -570 1 -4 -3 -28 -9 -55 -25 -103 -20 -455 7 -609 6
-29 4 -33 -16 -33 -39 0 -158 -37 -240 -74 -55 -25 -167 -108 -205 -151 -22
-26 -57 -65 -77 -87 -54 -60 -129 -223 -157 -343 -27 -117 -41 -357 -21 -370
5 -3 7 -12 4 -19 -8 -22 25 -203 53 -286 23 -70 128 -293 174 -369 56 -93 222
-285 299 -345 8 -7 38 -31 66 -54 29 -23 55 -42 60 -42 4 0 17 -9 29 -20 26
-25 192 -110 199 -103 3 4 14 -1 23 -10 10 -8 65 -30 123 -47 98 -30 116 -32
265 -34 125 -1 175 3 227 17 127 34 248 98 321 169 21 21 41 38 43 38 3 0 21
-12 41 -27 20 -15 64 -46 98 -68 35 -22 114 -74 176 -115 63 -42 137 -86 164
-99 28 -14 68 -33 90 -44 22 -12 47 -24 55 -27 8 -4 53 -26 100 -48 47 -22
105 -48 130 -57 25 -9 54 -21 65 -25 27 -11 111 -39 160 -53 22 -7 45 -16 52
-20 25 -16 303 -84 393 -97 3 0 -1 -4 -8 -9 -8 -4 -17 -37 -22 -72 -9 -65 -30
-142 -49 -178 -10 -17 -161 -101 -183 -101 -5 0 -50 -20 -101 -44 -51 -24 -99
-46 -107 -50 -8 -3 -28 -15 -45 -26 -16 -11 -46 -28 -65 -38 -19 -9 -49 -27
-65 -38 -17 -12 -46 -28 -65 -36 -19 -8 -50 -29 -69 -47 -18 -17 -35 -31 -38
-31 -19 0 -216 -208 -268 -284 -11 -16 -30 -43 -43 -60 -33 -46 -65 -96 -95
-148 l-27 -47 38 -20 39 -20 41 73 c23 40 64 101 92 136 27 34 50 66 50 69 0
11 150 165 210 216 88 75 429 272 473 274 10 1 33 -10 50 -23 33 -25 79 -49
257 -134 155 -74 221 -102 237 -102 8 0 27 -6 41 -14 15 -8 63 -24 107 -36 44
-12 91 -26 104 -32 13 -5 51 -15 85 -23 34 -7 79 -19 101 -25 120 -32 358 -68
508 -76 l137 -7 0 -453 0 -454 45 0 45 0 0 450 c0 352 3 451 13 455 6 2 78 6
159 9 82 4 158 10 170 15 13 5 48 12 78 16 30 3 71 11 90 15 19 5 85 21 145
35 61 15 135 35 165 45 103 33 175 54 193 56 10 1 28 6 40 11 12 6 56 23 97
39 74 27 291 125 320 144 8 5 38 22 66 39 28 16 58 37 67 45 15 15 26 11 134
-45 118 -61 168 -89 285 -164 79 -49 247 -211 300 -289 22 -32 48 -66 57 -75
9 -9 38 -55 66 -103 l49 -86 38 19 c37 19 46 33 29 43 -5 3 -21 29 -36 58 -15
29 -37 64 -50 78 -12 14 -25 32 -29 40 -15 37 -207 261 -254 297 -16 12 -40
33 -53 46 -32 29 -119 87 -132 87 -5 0 -23 10 -40 23 -18 12 -45 29 -62 38
-16 9 -46 26 -65 38 -19 11 -45 25 -58 31 -12 5 -61 28 -107 50 -46 22 -89 40
-94 40 -21 0 -166 81 -176 98 -20 35 -45 119 -54 177 -4 33 -11 67 -15 76 -6
14 4 17 60 23 37 4 81 13 99 21 18 7 69 21 112 30 43 10 88 24 101 31 12 8 22
12 22 10 0 -12 309 103 397 148 86 43 241 116 247 116 6 0 136 85 281 183 11
8 53 36 94 63 41 27 80 54 88 59 10 7 17 5 24 -7 31 -55 216 -160 340 -193 80
-21 251 -29 349 -17 72 9 243 55 265 71 5 4 33 16 60 26 28 10 62 26 77 36 14
11 30 19 35 19 5 0 24 13 43 30 19 16 39 29 43 30 15 0 161 122 227 189 67 68
176 205 201 253 8 15 32 60 55 100 44 80 97 202 124 288 70 219 73 536 8 735
-23 71 -72 177 -104 223 -35 53 -156 183 -184 197 -14 7 -34 22 -45 32 -47 44
-257 123 -326 123 -17 0 -19 5 -15 33 20 122 25 193 26 349 0 97 -4 197 -10
223 -6 26 -13 73 -15 105 -3 33 -10 71 -15 85 -6 15 -10 42 -10 60 0 19 -4 44
-9 57 -5 13 -19 68 -31 123 -13 55 -29 114 -36 132 -8 17 -14 35 -14 41 0 14
-51 165 -60 177 -4 6 -13 27 -19 47 -13 39 -123 259 -140 280 -38 46 -60 76
-71 97 -6 13 -27 43 -44 66 -31 40 -54 110 -71 220 -7 44 -39 157 -62 220 -35
93 -145 316 -179 362 -13 17 -24 34 -24 38 0 11 -91 144 -121 176 -16 17 -29
34 -29 38 0 29 -275 322 -299 318 -9 -1 -16 3 -16 9 0 11 -50 74 -60 74 -3 0
-28 17 -54 38 -73 56 -239 166 -303 202 -115 64 -184 100 -191 100 -5 0 -21 8
-35 18 -15 11 -36 21 -47 25 -11 3 -58 19 -105 36 -82 30 -244 70 -285 71 -11
0 -38 17 -60 38 -50 45 -101 83 -135 100 -26 12 -39 20 -105 64 -48 31 -193
107 -250 130 -119 49 -173 67 -193 61 -12 -3 -22 -1 -22 5 0 10 -13 15 -95 37
-27 7 -97 27 -155 43 -58 17 -141 35 -185 41 -84 10 -184 25 -275 41 -70 12
-440 12 -500 0 -25 -5 -83 -14 -130 -19 l-85 -11 -29 32 c-16 18 -39 49 -52
69 -12 21 -43 62 -68 92 -24 30 -56 72 -70 93 -47 70 -73 102 -105 134 -17 17
-31 38 -31 45 0 7 -13 25 -30 38 -16 14 -30 29 -30 32 0 9 -121 154 -150 180
-32 29 -76 28 -100 -3z m136 -151 c21 -27 46 -59 54 -71 8 -12 35 -48 60 -80
25 -32 81 -106 125 -165 112 -149 158 -208 172 -223 22 -23 15 -42 -14 -42
-16 0 -59 -10 -98 -21 -38 -11 -79 -22 -90 -25 -11 -3 -29 -10 -40 -14 -11 -5
-40 -13 -65 -19 -79 -17 -193 -52 -219 -66 -14 -7 -48 -22 -76 -31 -27 -10
-66 -27 -85 -39 -19 -12 -53 -29 -75 -39 -22 -10 -53 -28 -70 -41 -16 -12 -61
-39 -100 -60 -83 -46 -180 -119 -189 -140 -3 -9 -18 -15 -35 -15 -42 0 -179
-29 -231 -50 -25 -9 -76 -28 -115 -40 -38 -13 -77 -29 -85 -35 -8 -7 -25 -16
-38 -20 -19 -5 -143 -73 -203 -110 -9 -5 -39 -23 -65 -39 -73 -43 -127 -79
-148 -98 -11 -10 -23 -18 -27 -18 -15 0 -156 -118 -243 -203 -48 -48 -92 -87
-97 -87 -5 0 -9 8 -9 18 0 10 -7 42 -15 72 -13 48 -30 134 -74 370 -6 30 -12
80 -14 110 -3 30 -12 100 -21 155 -23 144 -25 137 32 110 26 -12 62 -26 79
-29 18 -4 35 -12 38 -17 4 -5 14 -9 24 -9 16 0 89 -30 178 -73 43 -20 67 3
107 102 20 50 36 98 36 107 0 9 8 31 19 48 10 17 26 65 36 106 10 41 21 80 25
85 4 6 10 22 14 37 3 15 11 40 17 55 13 32 76 205 110 303 33 98 71 194 79
203 8 9 81 -19 218 -84 46 -21 86 -39 88 -39 5 0 315 -148 339 -162 11 -6 75
-40 143 -75 130 -66 187 -80 198 -45 11 31 225 454 261 514 7 13 47 -19 89
-71z m683 -1916 c-19 -112 -58 -241 -84 -275 -7 -8 -18 -30 -25 -48 -7 -18
-25 -50 -41 -71 -15 -21 -37 -58 -50 -82 -12 -24 -24 -46 -28 -49 -3 -3 -22
-25 -41 -50 -50 -65 -52 -68 -85 -101 -36 -36 -140 -110 -177 -127 -18 -7 -28
-19 -28 -33 0 -24 56 -79 81 -79 9 0 52 -9 95 -19 108 -26 288 -34 400 -16
255 39 458 118 645 250 113 80 185 148 264 248 34 43 125 225 125 250 0 9 4
18 9 21 5 3 62 -21 127 -55 136 -69 455 -177 604 -205 59 -11 157 -19 259 -21
90 -2 167 -6 172 -9 5 -3 9 -21 9 -40 0 -20 11 -63 24 -97 13 -34 31 -91 41
-127 23 -85 86 -228 134 -300 9 -14 25 -42 36 -62 47 -91 206 -276 350 -406
114 -104 155 -136 243 -189 67 -41 202 -102 263 -119 69 -19 77 -30 90 -120 5
-35 20 -110 33 -167 13 -56 28 -124 34 -152 23 -115 53 -243 66 -280 7 -22 19
-60 26 -85 7 -25 24 -79 37 -120 13 -41 29 -91 34 -110 45 -155 100 -254 162
-295 32 -21 44 -103 52 -355 6 -169 4 -197 -19 -320 -13 -74 -29 -169 -36
-209 -10 -70 -53 -213 -70 -236 -4 -5 -13 -28 -20 -50 -18 -57 -86 -192 -118
-234 -15 -20 -41 -56 -57 -81 -77 -118 -341 -399 -430 -458 -22 -15 -46 -33
-53 -39 -7 -7 -17 -13 -22 -13 -5 0 -15 -6 -22 -13 -14 -13 -163 -115 -231
-158 -115 -71 -162 -94 -259 -126 -10 -3 -18 -9 -18 -13 0 -4 -11 -11 -25 -14
-13 -3 -41 -16 -61 -28 -21 -12 -93 -41 -160 -64 -68 -23 -137 -49 -154 -57
-17 -9 -65 -23 -108 -32 -42 -9 -85 -20 -94 -26 -10 -5 -26 -9 -37 -9 -10 0
-34 -6 -53 -14 -19 -8 -59 -18 -89 -21 -30 -4 -85 -13 -124 -22 -38 -8 -108
-21 -155 -29 -47 -7 -125 -20 -175 -29 -49 -8 -117 -18 -150 -20 -33 -3 -85
-9 -115 -14 -283 -49 -1109 -49 -1390 -1 -30 6 -82 12 -115 15 -33 3 -98 12
-145 20 -47 9 -112 20 -145 25 -33 5 -107 18 -165 29 -58 11 -130 24 -160 29
-65 12 -137 30 -165 42 -11 5 -47 14 -80 21 -33 6 -80 20 -104 31 -25 11 -99
38 -165 59 -67 22 -129 44 -138 49 -83 47 -178 92 -212 102 -22 6 -54 21 -70
31 -16 11 -50 31 -75 44 -25 12 -75 45 -111 72 -36 27 -79 57 -96 67 -133 80
-297 218 -409 346 -11 13 -50 57 -88 99 -37 43 -67 80 -67 83 0 4 -24 39 -53
79 -66 89 -137 233 -197 402 -20 53 -42 161 -82 405 -15 86 -13 419 3 515 17
104 20 114 39 120 27 9 95 103 115 160 9 28 21 59 26 70 4 11 15 45 24 75 9
30 29 96 45 145 17 50 30 97 30 106 0 9 6 29 14 45 14 27 40 138 71 300 8 39
28 128 44 197 17 69 31 138 31 154 0 47 28 69 112 87 27 6 179 77 227 106 100
61 219 155 270 213 9 10 54 55 100 100 45 45 108 116 139 157 31 41 59 77 63
80 3 3 14 23 24 45 10 22 24 47 31 55 22 27 124 237 130 269 4 17 11 34 15 37
5 3 9 16 9 28 0 13 11 52 24 87 13 35 27 85 30 112 l7 47 134 0 c236 0 384 30
680 136 118 42 335 147 382 184 13 10 45 29 71 41 26 13 52 28 57 34 10 11 99
79 159 120 70 49 132 83 138 77 3 -4 -3 -61 -13 -127z m-3419 -3100 c41 -10
86 -18 100 -19 32 -1 59 -45 37 -61 -20 -14 -35 -119 -47 -322 -10 -158 -9
-180 10 -285 32 -169 34 -188 22 -188 -6 0 -15 6 -19 13 -16 24 -125 90 -189
113 -53 20 -84 24 -172 24 -112 0 -154 -12 -160 -43 -7 -37 14 -44 141 -50
179 -7 234 -27 330 -120 58 -56 78 -82 87 -116 6 -23 10 -45 7 -47 -2 -2 -21
11 -43 29 -51 44 -92 57 -173 57 -75 0 -116 -19 -168 -78 -67 -75 -58 -193 22
-316 29 -43 111 -88 173 -93 52 -5 65 -2 121 28 82 42 127 88 141 141 21 85
24 86 48 20 49 -134 228 -376 423 -571 l83 -83 -28 -21 c-15 -12 -40 -32 -56
-45 -42 -34 -166 -88 -253 -111 -87 -24 -255 -29 -334 -10 -361 86 -594 247
-823 571 -71 99 -102 152 -124 208 -10 25 -26 63 -36 85 -21 47 -33 83 -59
185 -59 234 -39 520 49 701 36 75 97 166 137 203 82 79 102 96 107 96 3 0 31
15 63 34 65 37 134 62 240 85 86 19 226 13 343 -14z m7825 9 c61 -13 142 -44
211 -81 250 -134 385 -396 387 -753 2 -173 -34 -341 -105 -498 -15 -34 -28
-66 -28 -70 0 -13 -104 -175 -164 -255 -29 -41 -87 -107 -127 -147 -73 -73
-200 -180 -213 -180 -3 0 -25 -12 -49 -27 -102 -66 -223 -114 -370 -147 -99
-23 -259 -21 -353 4 -84 23 -217 82 -248 111 -11 11 -23 19 -26 19 -4 0 -19
10 -33 23 l-27 23 81 84 c100 106 196 214 230 260 104 141 191 288 203 343 9
37 26 34 26 -4 0 -43 37 -115 74 -142 119 -88 212 -98 309 -34 40 27 65 54 89
95 30 53 33 64 33 144 0 100 -11 122 -89 176 -44 29 -55 32 -122 32 -81 0
-114 -11 -159 -52 -43 -40 -55 -37 -43 11 10 39 38 75 114 142 79 71 136 90
296 96 134 6 156 13 143 52 -9 29 -57 41 -165 41 -121 0 -201 -26 -302 -100
-39 -28 -73 -49 -76 -46 -3 3 2 38 11 78 37 170 39 199 27 389 -14 227 -24
306 -43 328 -13 14 -13 18 -1 29 8 7 13 16 10 20 -2 4 8 7 22 8 15 0 61 9 102
19 89 21 261 33 310 22 19 -4 49 -10 65 -13z m-7813 -1129 c43 -18 81 -60 102
-113 28 -74 23 -95 -36 -133 -46 -29 -62 -34 -115 -34 -60 0 -64 2 -104 42
-40 39 -42 44 -46 115 -5 67 -3 75 18 94 45 41 124 53 181 29z m7549 5 c100
-28 116 -160 28 -245 -32 -33 -46 -39 -91 -42 -47 -4 -60 0 -115 33 -70 42
-74 52 -48 125 27 75 102 138 165 139 14 0 41 -5 61 -10z"/>
<path d="M4129 6617 c-66 -15 -156 -67 -202 -116 -17 -19 -24 -29 -14 -22 14
12 17 11 17 -3 0 -29 23 -27 85 5 120 62 170 70 294 49 79 -13 151 -40 171
-65 7 -8 28 -15 46 -15 30 0 34 3 34 25 0 46 -76 103 -172 127 -94 24 -193 30
-259 15z"/>
<path d="M6805 6624 c-138 -20 -258 -80 -270 -135 -4 -17 -4 -33 -1 -36 13
-14 57 -3 88 21 19 14 41 26 49 26 8 0 19 4 25 9 12 13 125 31 189 31 57 0
104 -15 192 -60 62 -32 113 -36 113 -9 0 7 -6 6 -17 -2 -15 -13 -16 -11 -10
13 6 24 1 30 -54 67 -34 23 -81 48 -104 56 -47 16 -152 26 -200 19z"/>
<path d="M3988 5561 c-76 -16 -208 -94 -291 -171 -90 -84 -159 -172 -152 -192
3 -7 15 -20 27 -27 20 -12 24 -11 38 9 8 12 47 58 85 103 117 135 245 197 403
198 47 0 94 5 104 10 26 14 23 55 -4 63 -39 11 -171 15 -210 7z"/>
<path d="M6908 5559 c-30 -9 -38 -16 -38 -35 0 -34 28 -44 129 -44 49 0 100
-4 113 -9 13 -5 40 -14 61 -21 84 -26 187 -111 270 -222 27 -38 54 -68 59 -68
5 0 6 5 2 12 -4 6 -3 8 4 5 16 -11 42 3 42 22 0 44 -182 237 -263 280 -23 12
-49 26 -57 30 -70 40 -116 53 -197 56 -49 2 -105 -1 -125 -6z"/>
<path d="M4051 5373 c-86 -16 -290 -143 -291 -180 0 -6 -9 -18 -19 -25 -26
-19 -79 -131 -96 -204 -12 -48 -13 -74 -4 -120 12 -64 42 -138 68 -168 21 -25
134 -96 190 -121 54 -24 188 -27 241 -6 93 37 181 84 190 101 6 11 16 20 23
20 11 0 97 101 97 115 0 3 9 18 20 33 10 15 29 61 40 104 18 67 19 85 10 144
-16 98 -41 147 -112 217 -53 52 -73 65 -125 80 -58 16 -173 21 -232 10z"/>
<path d="M6796 5357 c-50 -18 -79 -36 -110 -68 -89 -93 -116 -157 -116 -274 1
-85 23 -152 78 -238 78 -120 173 -188 327 -233 123 -35 277 13 398 125 63 58
98 202 73 299 -20 79 -72 190 -96 204 -11 7 -20 17 -20 23 0 21 -104 98 -183
137 -76 37 -90 41 -182 45 -87 3 -109 1 -169 -20z"/>
<path d="M5514 5029 c-137 -17 -220 -54 -321 -143 -40 -36 -80 -113 -65 -128
15 -15 42 -2 97 48 59 53 144 106 200 125 23 8 86 13 150 14 110 0 110 0 202
-44 57 -27 107 -59 131 -85 53 -54 112 -145 112 -173 0 -12 5 -25 10 -28 6 -3
10 -41 10 -83 0 -195 -118 -355 -311 -421 -123 -42 -174 -40 -397 19 -46 12
-86 19 -89 16 -26 -25 93 -103 194 -127 96 -22 139 -23 239 -4 103 20 192 63
270 131 160 140 215 334 150 528 -55 163 -174 278 -341 329 -95 30 -159 36
-241 26z"/>
<path d="M4776 3475 c-42 -32 -2 -76 129 -146 84 -44 278 -105 362 -113 32 -4
74 -8 93 -11 19 -2 73 -1 120 3 77 6 86 9 97 32 22 44 -9 55 -161 56 -122 1
-233 17 -291 43 -11 5 -58 23 -105 40 -47 18 -111 50 -142 72 -63 43 -74 45
-102 24z"/>
<path d="M3734 760 c-11 -4 -26 -21 -32 -37 -22 -55 -53 -196 -45 -203 12 -12
185 -71 191 -66 2 3 -1 48 -7 101 -8 71 -19 112 -41 156 -32 62 -33 63 -66 49z"/>
<path d="M7300 728 c-11 -18 -26 -53 -34 -78 -15 -46 -32 -200 -23 -200 12 0
183 62 190 69 11 10 -29 188 -48 218 -23 34 -61 30 -85 -9z"/>
</g>
</svg>
